Coordinates
version=1
nRows=17
nColumns=33
inDegrees=yes

Units are S.I. units (second, meters, Newtons, ...)
Angles are in degrees.

endheader
time	ground_thorax_rot_x	ground_thorax_rot_y	ground_thorax_rot_z	ground_thorax_tx	ground_thorax_ty	ground_thorax_tz	clav_prot_r	clav_elev_r	scapula_abduction_r	scapula_elevation_r	scapula_upward_rot_r	scapula_winging_r	shoulder_elv_r	plane_of_elev_r	axial_rot_r	elbow_flexion_r	pro_sup_r	wrist_flex_r	wrist_dev_r	clav_prot_l	clav_elev_l	scapula_abduction_l	scapula_elevation_l	scapula_upward_rot_l	scapula_winging_l	shoulder_elv_l	plane_of_elev_l	axial_rot_l	elbow_flexion_l	pro_sup_l	wrist_flex_l	wrist_dev_l	
8.7100	-22.152730	-33.743796	55.320419	-76.603275	778.892565	5.595153	8.002062	-45.000000	36.596579	-45.000000	-44.992463	-2257.837630	-1735.998231	29.730208	72.474451	1810.887510	32.469095	18.359023	9.826106	13.960885	37.666475	-31.057357	-45.000000	-45.000000	1879.675895	-3340.766082	138.980194	156.316453	366.927473	23.866391	9.124524	-18.870995	
8.7200	-22.485532	-33.471556	54.903161	-78.819533	779.041661	5.399627	7.985783	-45.000000	36.628778	-45.000000	-44.986488	-2257.873505	-1735.815130	29.919383	72.190896	1811.057704	32.797936	18.440426	9.736173	14.025661	37.707760	-31.203603	-45.000000	-45.000000	1879.835422	-3340.612073	138.921820	156.521027	367.031479	23.329401	9.158458	-18.891761	
8.7300	-22.814396	-33.191554	54.483307	-81.113279	779.253376	5.218432	7.970698	-45.000000	36.667741	-45.000000	-44.975825	-2257.910872	-1735.619808	30.101846	71.902750	1811.237087	33.162784	18.524931	9.641779	14.095665	37.750014	-31.343762	-45.000000	-45.000000	1879.984970	-3340.448093	138.863101	156.765000	367.133255	22.685661	9.202679	-18.903058	
8.7400	-23.135347	-32.903703	54.064092	-83.483583	779.530398	5.052758	7.955051	-45.000000	36.707639	-45.000000	-44.956616	-2257.952838	-1735.408079	30.279398	71.598576	1811.423265	33.556805	18.610681	9.542025	14.167486	37.788579	-31.478097	-45.000000	-45.000000	1880.130723	-3340.281373	138.799295	157.052290	367.228695	21.917026	9.262624	-18.901863	
8.7500	-23.454122	-32.606221	53.639363	-85.928945	779.874832	4.904610	7.941593	-45.000000	36.749404	-45.000000	-44.922509	-2258.005469	-1735.193952	30.454577	71.276317	1811.602770	33.972201	18.691971	9.436229	14.234487	37.808156	-31.615261	-45.000000	-45.000000	1880.281287	-3340.114079	138.723947	157.384827	367.314342	21.009722	9.346983	-18.885821	
8.7600	-23.778414	-32.292193	53.194082	-88.447064	780.287979	4.776691	7.924673	-45.000000	36.796557	-45.000000	-44.860570	-2258.066414	-1734.977025	30.628225	70.942733	1811.772443	34.393710	18.767608	9.326755	14.297773	37.812281	-31.762107	-45.000000	-45.000000	1880.435959	-3339.950809	138.634000	157.762634	367.388002	19.963957	9.452204	-18.853463	
8.7700	-24.114999	-31.957796	52.716950	-91.035189	780.770225	4.672045	7.907032	-45.000000	36.856356	-45.000000	-44.751975	-2258.138944	-1734.771741	30.797880	70.598032	1811.920139	34.802836	18.835037	9.218547	14.350515	37.794288	-31.925284	-45.000000	-45.000000	1880.597770	-3339.791325	138.526449	158.171961	367.452998	18.793738	9.579346	-18.806684	
8.7800	-24.471131	-31.593588	52.189354	-93.689261	781.320783	4.593480	7.884011	-45.000000	36.935582	-45.000000	-44.550873	-2258.220506	-1734.567969	30.950643	70.255923	1812.055766	35.175446	18.900291	9.119861	14.401329	37.777422	-32.103625	-45.000000	-45.000000	1880.751119	-3339.631868	138.407517	158.607781	367.517659	17.532121	9.704585	-18.748528	
8.7900	-24.848791	-31.200699	51.604511	-96.404096	781.937632	4.542837	7.857796	-45.000000	37.033707	-45.000000	-44.241736	-2258.311139	-1734.377133	31.085811	69.916090	1812.168598	35.490838	18.962273	9.035139	14.443436	37.761171	-32.298268	-45.000000	-45.000000	1880.895937	-3339.468645	138.280699	159.057005	367.590794	16.218848	9.826933	-18.686040	
8.8000	-25.257214	-30.767759	50.941711	-99.172912	782.617364	4.520358	7.821224	-45.000000	37.161649	-45.000000	-43.783953	-2258.403181	-1734.186246	31.187539	69.602224	1812.273915	35.730927	19.030079	8.974386	14.490929	37.778840	-32.509112	-45.000000	-45.000000	1881.011793	-3339.296722	138.154304	159.520157	367.678116	14.908933	9.909074	-18.624653	
8.8100	-25.688899	-30.302038	50.216331	-101.987792	783.355212	4.524331	7.774905	-45.000000	37.312616	-45.000000	-43.194216	-2258.498725	-1734.004177	31.258755	69.297739	1812.361057	35.887850	19.101462	8.937091	14.534003	37.819336	-32.736244	-45.000000	-45.000000	1881.109869	-3339.118179	138.027578	159.986027	367.782198	13.651566	9.959329	-18.572751	
8.8200	-26.127846	-29.814015	49.461191	-104.840037	784.145118	4.551202	7.719793	-45.000000	37.479421	-45.000000	-42.532514	-2258.598193	-1733.816727	31.309051	69.013076	1812.443167	35.959470	19.175093	8.914035	14.582285	37.877665	-32.968911	-45.000000	-45.000000	1881.193463	-3338.935916	137.895295	160.478938	367.891281	12.477402	9.973995	-18.529086	
8.8300	-26.556003	-29.324683	48.714506	-107.721223	784.980018	4.596070	7.659132	-45.000000	37.641379	-45.000000	-41.872660	-2258.699631	-1733.630715	31.355616	68.714992	1812.508698	35.954815	19.245304	8.897181	14.623312	37.930965	-33.203133	-45.000000	-45.000000	1881.283511	-3338.754311	137.760359	160.977669	368.002706	11.399545	9.978007	-18.497628	
8.8400	-26.967455	-28.837676	47.990700	-110.623676	785.852135	4.653499	7.595376	-45.000000	37.796518	-45.000000	-41.241102	-2258.803460	-1733.437517	31.400889	68.421641	1812.570003	35.887105	19.312263	8.879460	14.665470	37.981916	-33.433403	-45.000000	-45.000000	1881.375973	-3338.573087	137.623410	161.492879	368.109940	10.417306	9.967645	-18.475184	
8.8500	-27.358425	-28.363386	47.298324	-113.540897	786.753402	4.718321	7.531125	-45.000000	37.936022	-45.000000	-40.662399	-2258.908944	-1733.246015	31.455737	68.118807	1812.620713	35.771526	19.372478	8.855331	14.698839	38.016129	-33.659462	-45.000000	-45.000000	1881.481496	-3338.395225	137.487764	162.005957	368.211831	9.521988	9.963191	-18.462194	
8.8600	-27.723609	-27.907386	46.648248	-116.467236	787.675819	4.786294	7.472026	-45.000000	38.059500	-45.000000	-40.152556	-2259.020851	-1733.053519	31.524347	67.831301	1812.671270	35.618611	19.423514	8.817207	14.729763	38.028401	-33.872314	-45.000000	-45.000000	1881.597982	-3338.219981	137.348044	162.537074	368.300653	8.690279	9.968276	-18.452193	
8.8700	-28.067199	-27.471701	46.030631	-119.397703	788.611971	4.854472	7.419527	-45.000000	38.167890	-45.000000	-39.697657	-2259.132526	-1732.864326	31.602215	67.556715	1812.720439	35.437047	19.467720	8.770569	14.754633	38.026610	-34.071354	-45.000000	-45.000000	1881.720915	-3338.045591	137.214266	163.062862	368.380531	7.907253	9.981363	-18.445813	
